<svg xmlns="http://www.w3.org/2000/svg" viewBox="0 0 100 100" width="100" height="100">
  <!-- Background circle for better visibility -->
  <circle cx="50" cy="50" r="48" fill="#f8fafc" stroke="#e2e8f0" stroke-width="1"/>
  
  <!-- Radio body -->
  <rect x="20" y="45" width="60" height="35" rx="8" ry="8" fill="#ff8c42" stroke="#2d6a6b" stroke-width="2"/>
  
  <!-- Antenna -->
  <line x1="50" y1="45" x2="50" y2="30" stroke="#2d6a6b" stroke-width="2" stroke-linecap="round"/>
  <line x1="50" y1="30" x2="65" y2="20" stroke="#2d6a6b" stroke-width="2" stroke-linecap="round"/>
  <circle cx="65" cy="20" r="2" fill="#2d6a6b"/>
  
  <!-- WiFi signals -->
  <path d="M 35 20 Q 50 10 65 20" stroke="#4a9ba0" stroke-width="2" fill="none"/>
  <path d="M 40 25 Q 50 18 60 25" stroke="#4a9ba0" stroke-width="2" fill="none"/>
  <path d="M 45 30 Q 50 26 55 30" stroke="#4a9ba0" stroke-width="2" fill="none"/>
  
  <!-- Speaker grille -->
  <circle cx="35" cy="62" r="12" fill="none" stroke="#2d6a6b" stroke-width="2"/>
  <circle cx="31" cy="58" r="1" fill="#2d6a6b"/>
  <circle cx="35" cy="58" r="1" fill="#2d6a6b"/>
  <circle cx="39" cy="58" r="1" fill="#2d6a6b"/>
  <circle cx="29" cy="62" r="1" fill="#2d6a6b"/>
  <circle cx="33" cy="62" r="1" fill="#2d6a6b"/>
  <circle cx="37" cy="62" r="1" fill="#2d6a6b"/>
  <circle cx="41" cy="62" r="1" fill="#2d6a6b"/>
  <circle cx="31" cy="66" r="1" fill="#2d6a6b"/>
  <circle cx="35" cy="66" r="1" fill="#2d6a6b"/>
  <circle cx="39" cy="66" r="1" fill="#2d6a6b"/>
  
  <!-- Display screen -->
  <rect x="55" y="52" width="18" height="8" rx="2" ry="2" fill="#4a9ba0" stroke="#2d6a6b" stroke-width="1"/>
  <rect x="57" y="54" width="14" height="4" rx="1" ry="1" fill="#5fb3b9"/>
  
  <!-- Control knobs -->
  <circle cx="60" cy="68" r="4" fill="none" stroke="#2d6a6b" stroke-width="2"/>
  <circle cx="60" cy="68" r="2" fill="#4a9ba0"/>
  <circle cx="70" cy="68" r="4" fill="none" stroke="#2d6a6b" stroke-width="2"/>
  <circle cx="70" cy="68" r="2" fill="#4a9ba0"/>
  
  <!-- Feet -->
  <rect x="22" y="77" width="6" height="3" rx="1" fill="#2d6a6b"/>
  <rect x="72" y="77" width="6" height="3" rx="1" fill="#2d6a6b"/>
</svg>
